:version 1.10
:name ASF
:units
  mass 1
  length 1
  angle deg
:documentation
  ASF file generated by Kaydara
:root
  axis xyz
  order  tx ty tz rx ry rz
  position 0 0 0
  orientation 0 0 0
:bonedata
  begin
    id 1
    name RightUpLegDummy
    direction -1 2.30186e-007 8.31532e-007
    length 4.46685
    axis 0 0 0 xyz
  end
  begin
    id 2
    name RightUpLeg
    direction -2.30187e-007 -1 1.24343e-010
    length 16.4045
    axis -3.49089 -0.000906625 0.000286804 xyz
    dof rx ry rz
  end
  begin
    id 3
    name RightLeg
    direction -2.30181e-007 -1 -4.17157e-009
    length 17.5097
    axis 3.68512 0.0193738 -0.131023 xyz
    dof rx ry rz
  end
  begin
    id 4
    name RightFoot
    direction 8.31421e-007 -4.51202e-011 1
    length 6.49508
    axis 4.81691e-005 -0.120479 -0.188788 xyz
    dof rx ry rz
  end
  begin
    id 5
    name RightToes
    direction 0.00124746 -0.014064 0.9999
    length 3.85082
    axis 0.000481921 0.542163 -0.142578 xyz
    dof rx ry rz
  end
  begin
    id 6
    name SpineDummy
    direction 0.0717043 0.9409 -0.331007
    length 10.0032
    axis 0 0 0 xyz
  end
  begin
    id 7
    name Spine
    direction 2.30186e-007 1 4.58806e-011
    length 9.84055
    axis -0.001389 0.000121418 2.40972e-006 xyz
    dof rx ry rz
  end
  begin
    id 8
    name Spine1
    direction 0 0 0
    length 0
    axis -0.001389 0.000121451 1.30017e-006 xyz
    dof rx ry rz
  end
  begin
    id 9
    name HEadDummy
    direction -0.00347485 0.950688 -0.310128
    length 8.00997
    axis -0.001389 0.000121451 1.30017e-006 xyz
  end
  begin
    id 10
    name HEad
    direction -0.0222688 0.980941 0.193023
    length 5.12695
    axis -0.001389 0.000121451 1.30017e-006 xyz
    dof rx ry rz
  end
  begin
    id 11
    name LeftShoulder1Dummy
    direction 0.988871 0.146793 -0.0242004
    length 3.5792
    axis -0.001389 0.000121451 1.30017e-006 xyz
  end
  begin
    id 12
    name LeftShoulder1
    direction 0.993832 0.108932 0.020779
    length 4.16823
    axis -0.001389 0.000121451 1.30017e-006 xyz
    dof rx ry rz
  end
  begin
    id 13
    name LeftArm
    direction 1 3.44807e-006 -8.31404e-007
    length 9.91437
    axis -23.1894 0.134784 0.967509 xyz
    dof rx ry rz
  end
  begin
    id 14
    name LeftForeArm
    direction 1 3.44842e-006 -8.31581e-007
    length 9.08575
    axis -9.91835 -0.06569 -0.177793 xyz
    dof rx ry rz
  end
  begin
    id 15
    name LeftHand
    direction 0.992938 -0.0411636 0.11126
    length 5.32135
    axis -0.00960232 -0.00340091 0.185173 xyz
    dof rx ry rz
  end
  begin
    id 16
    name RightShoulderDummy
    direction -0.988871 0.146793 -0.0241962
    length 3.5792
    axis -0.001389 0.000121451 1.30017e-006 xyz
  end
  begin
    id 17
    name RightShoulder
    direction -0.993832 0.108933 0.0207785
    length 4.16823
    axis 0.215806 0.000203643 -0.0068026 xyz
    dof rx ry rz
  end
  begin
    id 18
    name RightArm
    direction -1 3.90912e-006 8.31284e-007
    length 9.91437
    axis -23.2009 -0.134239 -0.964101 xyz
    dof rx ry rz
  end
  begin
    id 19
    name RightForeArm
    direction -1 3.90882e-006 8.31502e-007
    length 9.08575
    axis -9.92322 0.0658061 0.178867 xyz
    dof rx ry rz
  end
  begin
    id 20
    name RightHand
    direction -0.992843 -0.0414603 0.112003
    length 5.28593
    axis -0.00960638 0.00330671 -0.185228 xyz
    dof rx ry rz
  end
  begin
    id 21
    name LeftUpLegDummy
    direction 1 -2.30186e-007 -8.31532e-007
    length 4.46685
    axis 0 0 0 xyz
  end
  begin
    id 22
    name LeftUpLeg
    direction -2.30187e-007 -1 6.00931e-010
    length 16.4045
    axis -3.48766 0.00143442 -0.000524262 xyz
    dof rx ry rz
  end
  begin
    id 23
    name LeftLeg
    direction -2.30187e-007 -1 1.6669e-009
    length 17.5097
    axis 3.68178 -0.00654042 -0.000285133 xyz
    dof rx ry rz
  end
  begin
    id 24
    name LeftFoot
    direction 8.31532e-007 -4.54478e-011 1
    length 6.49508
    axis 1.87233e-006 4.66016e-005 -8.6538e-006 xyz
    dof rx ry rz
  end
  begin
    id 25
    name LeftToes
    direction 0.00818058 -0.00485161 0.999955
    length 3.85048
    axis 1.06247e-005 4.65869e-005 -8.65513e-006 xyz
    dof rx ry rz
  end
:hierarchy
  begin
    root RightUpLegDummy SpineDummy LeftUpLegDummy
    RightUpLegDummy RightUpLeg
    RightUpLeg RightLeg
    RightLeg RightFoot
    RightFoot RightToes
    SpineDummy Spine
    Spine Spine1
    Spine1 HEadDummy LeftShoulder1Dummy RightShoulderDummy
    HEadDummy HEad
    LeftShoulder1Dummy LeftShoulder1
    LeftShoulder1 LeftArm
    LeftArm LeftForeArm
    LeftForeArm LeftHand
    RightShoulderDummy RightShoulder
    RightShoulder RightArm
    RightArm RightForeArm
    RightForeArm RightHand
    LeftUpLegDummy LeftUpLeg
    LeftUpLeg LeftLeg
    LeftLeg LeftFoot
    LeftFoot LeftToes
  end

:SAMPLES-PER-SECOND 30
:FULLY-SPECIFIED
:DEGREES
88
root  19.4976 30.2061 4.23043 -169.425 -74.5844 -177.712
RightUpLeg  -17.8758 -13.3642 0.367378
RightLeg  54.8715 -10.3286 -12.6159
RightFoot  -13.2248 0.429807 4.08417
RightToes  -50.2298 -0.304915 -0.365327
Spine  11.283 2.04312 2.86526
Spine1  20.3494 4.22792 5.97599
HEad  -16.6877 -9.59728 10.1398
LeftShoulder1  0 -2.42657e-020 -4.95415e-022
LeftArm  10.3274 -6.99785 -91.4569
LeftForeArm  75.2813 -79.512 -74.1375
LeftHand  -0.0787372 -1.11495 7.75704
RightShoulder  0 2.42657e-020 1.07489e-018
RightArm  5.91544 3.02894 62.078
RightForeArm  174.365 78.3103 120.767
RightHand  -6.15157 9.15489 -67.4034
LeftUpLeg  -57.0135 24.6295 -17.0232
LeftLeg  34.6434 0.170104 0.0976301
LeftFoot  -0.986624 0.00113976 0.132365
LeftToes  -12.7627 1.28829e-006 1.15665e-007
89
root  18.0532 30.0482 4.05452 -149.906 -83.6717 162.373
RightUpLeg  -21.9147 -15.3639 -1.32075
RightLeg  68.093 -7.11629 -14.63
RightFoot  -4.84654 0.0556981 1.69388
RightToes  -38.9231 -0.209938 -0.308958
Spine  11.0026 1.20011 2.16554
Spine1  19.6045 2.70936 4.42809
HEad  -19.6649 -13.6526 13.6307
LeftShoulder1  0 -2.42657e-020 -4.95415e-022
LeftArm  11.355 -11.312 -92.3096
LeftForeArm  78.6955 -79.7 -78.5388
LeftHand  -0.0945454 -1.31763 7.87947
RightShoulder  0 2.42657e-020 1.07489e-018
RightArm  3.25385 5.22546 63.3118
RightForeArm  -178.077 77.9142 123.943
RightHand  -6.34112 8.86946 -70.7416
LeftUpLeg  -54.2434 17.7861 -17.9713
LeftLeg  36.319 0.330915 0.207234
LeftFoot  2.18297 -0.00325832 0.171011
LeftToes  -12.8285 1.28829e-006 1.15665e-007
90
root  16.8437 29.728 3.7585 -63.56 -87.1985 75.3949
RightUpLeg  -27.6267 -13.0221 -1.43898
RightLeg  78.8132 -2.2191 -8.62233
RightFoot  -6.92641 0.0579348 1.33498
RightToes  -29.3713 -0.139615 -0.247572
Spine  11.0964 0.89582 1.76382
Spine1  19.5233 2.21326 3.50456
HEad  -22.4079 -17.4006 17.4799
LeftShoulder1  0 -2.42657e-020 -4.95415e-022
LeftArm  12.9926 -16.7045 -93.7961
LeftForeArm  70.2829 -79.1842 -68.721
LeftHand  -0.0957344 -1.24718 8.45562
RightShoulder  0 2.42657e-020 1.07489e-018
RightArm  -0.0425465 9.33786 63.7867
RightForeArm  -178.114 78.4544 119.735
RightHand  -5.37782 6.9715 -74.9474
LeftUpLeg  -53.6877 15.3142 -18.7207
LeftLeg  40.4346 -2.15541 -1.6143
LeftFoot  2.14142 -0.000802885 0.04295
LeftToes  -5.27511 1.28829e-006 1.15665e-007
91
root  15.7367 29.3284 3.33362 -11.4496 -83.1516 22.9945
RightUpLeg  -34.5576 -8.91841 -1.53559
RightLeg  84.6194 -0.449838 -3.44577
RightFoot  -9.98725 0.0365425 0.795822
RightToes  -37.093 -0.195687 -0.298119
Spine  11.33 0.687766 1.56024
Spine1  19.6778 1.9037 2.82395
HEad  -26.1434 -19.8406 20.89
LeftShoulder1  0 -2.42657e-020 -4.95415e-022
LeftArm  14.8695 -23.7754 -96.0765
LeftForeArm  52.8948 -77.1434 -51.1761
LeftHand  -0.0731157 -0.8766 9.23866
RightShoulder  0 2.42657e-020 1.07489e-018
RightArm  -4.35484 14.2278 63.1322
RightForeArm  -178.752 78.7618 116.873
RightHand  -5.16236 6.43378 -77.1518
LeftUpLeg  -54.3175 13.2543 -18.1701
LeftLeg  45.9098 -3.64751 -3.31118
LeftFoot  -0.120263 0.000108483 0.103356
LeftToes  -1.88201 1.28829e-006 1.15665e-007
92
root  14.6693 28.8923 2.83602 0.760406 -79.082 11.3125
RightUpLeg  -42.8546 -3.99488 -2.98164
RightLeg  85.9541 -0.41153 -3.78687
RightFoot  -12.2292 0.0547613 0.888778
RightToes  -35.6732 -0.184874 -0.289399
Spine  11.2006 0.339514 1.17942
Spine1  19.0928 1.23457 1.90152
HEad  -29.704 -20.9815 24.4872
LeftShoulder1  0 -2.42657e-020 -4.95415e-022
LeftArm  17.182 -32.1484 -96.1289
LeftForeArm  44.9071 -75.6664 -44.0603
LeftHand  -0.0166411 -0.175384 10.9002
RightShoulder  0 2.42657e-020 1.07489e-018
RightArm  -8.28255 20.713 61.3759
RightForeArm  176.618 79.2144 111.58
RightHand  -5.00959 6.15085 -77.994
LeftUpLeg  -56.0232 10.0456 -16.1295
LeftLeg  51.6852 -3.54411 -3.93578
LeftFoot  -3.18143 0.00788983 0.284101
LeftToes  -3.18884 1.28829e-006 1.15665e-007
93
root  13.4855 28.4248 2.30318 6.23958 -76.5388 5.39265
RightUpLeg  -49.6332 2.11323 -6.22872
RightLeg  82.8434 -1.13435 -6.40143
RightFoot  -14.0727 0.142079 1.52869
RightToes  -31.5321 -0.154612 -0.262472
Spine  11.4406 0.111326 0.807955
Spine1  19.1988 0.703231 1.06139
HEad  -32.5876 -21.019 27.0343
LeftShoulder1  0 -2.42657e-020 -4.95415e-022
LeftArm  18.8357 -43.0443 -95.0903
LeftForeArm  39.5591 -73.7529 -37.5448
LeftHand  -0.053242 -0.539339 11.0472
RightShoulder  0 2.42657e-020 1.07489e-018
RightArm  -14.6127 29.2754 58.0776
RightForeArm  168.044 79.7014 102.987
RightHand  -4.74032 5.77664 -78.4227
LeftUpLeg  -57.0283 8.07628 -13.3569
LeftLeg  57.6482 -2.35602 -3.24409
LeftFoot  -7.14304 0.0218996 0.350857
LeftToes  -6.06513 1.28829e-006 1.15665e-007
94
root  12.1414 27.9218 1.76454 11.3351 -74.6278 -0.413956
RightUpLeg  -54.756 7.99462 -10.1188
RightLeg  76.3182 -2.63416 -8.62225
RightFoot  -14.3713 0.205509 2.00759
RightToes  -29.3779 -0.139661 -0.247619
Spine  11.3011 -0.205133 0.543806
Spine1  18.686 -0.222363 0.60456
HEad  -34.5373 -20.8448 28.3702
LeftShoulder1  0 -2.42657e-020 -4.95415e-022
LeftArm  19.6691 -55.0764 -93.9394
LeftForeArm  35.1101 -72.1783 -33.5114
LeftHand  -0.0427626 -0.465436 10.2816
RightShoulder  0 2.42657e-020 1.07489e-018
RightArm  -23.1812 37.8985 52.8651
RightForeArm  162.06 79.9262 95.2883
RightHand  -4.94731 6.05621 -78.1638
LeftUpLeg  -57.722 7.31098 -10.1079
LeftLeg  63.6878 -1.04642 -1.82429
LeftFoot  -11.8236 0.0101737 0.0982417
LeftToes  -8.34981 1.28829e-006 1.15665e-007
95
root  10.5005 27.4403 1.33271 13.194 -71.811 -3.95642
RightUpLeg  -56.1975 11.5269 -13.3467
RightLeg  69.0319 -3.23465 -7.16212
RightFoot  -9.01191 0.0330867 0.797457
RightToes  -35.1173 -0.1807 -0.285913
Spine  10.8717 -0.994065 0.181397
Spine1  17.8821 -2.06574 -0.106413
HEad  -34.5504 -21.0347 29.3089
LeftShoulder1  0 -2.42657e-020 -4.95415e-022
LeftArm  20.3264 -66.5622 -93.8972
LeftForeArm  31.8122 -70.7313 -30.4973
LeftHand  -0.0853803 -1.14908 8.17802
RightShoulder  0 2.42657e-020 1.07489e-018
RightArm  -33.5022 45.9573 46.1361
RightForeArm  155.244 79.961 86.6656
RightHand  -4.54543 5.47669 -79.0665
LeftUpLeg  -56.5396 5.36663 -6.75373
LeftLeg  69.0755 -1.02636 -2.25504
LeftFoot  -16.0515 0.0305062 0.216348
LeftToes  -5.11122 1.28829e-006 1.15665e-007
96
root  8.4487 27.0883 1.13504 9.61826 -67.7754 -3.7923
RightUpLeg  -52.5227 13.7583 -15.0592
RightLeg  66.1413 -1.42584 -2.86128
RightFoot  -6.40788 -0.0330251 -0.212439
RightToes  -50.6666 -0.308794 -0.367121
Spine  10.5653 -2.12365 -0.102716
Spine1  17.4977 -4.45123 -0.787424
HEad  -33.8254 -22.7293 28.5446
LeftShoulder1  0 -2.42657e-020 -4.95415e-022
LeftArm  20.6666 -76.6699 -95.1471
LeftForeArm  29.4781 -69.1784 -27.7954
LeftHand  -0.0945778 -1.63863 6.26274
RightShoulder  0 2.42657e-020 1.07489e-018
RightArm  -47.4154 52.2621 33.4626
RightForeArm  146.144 79.6768 75.7399
RightHand  -4.72239 5.79683 -78.0131
LeftUpLeg  -51.8912 2.21755 -4.25734
LeftLeg  73.0291 -0.99289 -2.65059
LeftFoot  -20.0859 0.0854199 0.482314
LeftToes  -4.18647 1.28829e-006 1.15665e-007
97
root  6.16853 26.9675 1.02101 7.07455 -64.7533 -4.69945
RightUpLeg  -46.799 16.039 -12.8779
RightLeg  69.785 -0.341632 -0.937657
RightFoot  -11.3025 -0.0773776 -0.404417
RightToes  -52.9752 -0.329515 -0.376107
Spine  9.53959 -2.70237 -0.522504
Spine1  15.9836 -5.67833 -1.53355
HEad  -31.8435 -25.1777 27.2551
LeftShoulder1  0 -2.42657e-020 -4.95415e-022
LeftArm  21.1315 -85.3683 -96.9804
LeftForeArm  25.8002 -67.7876 -25.7263
LeftHand  -0.0592741 -1.28839 4.92461
RightShoulder  0 2.42657e-020 1.07489e-018
RightArm  -64.5628 56.0641 17.0289
RightForeArm  127.633 77.985 55.9116
RightHand  -4.62384 5.73937 -77.3896
LeftUpLeg  -45.9539 0.88192 -1.55652
LeftLeg  75.3772 -1.2937 -3.92524
LeftFoot  -23.5734 0.255081 1.22237
LeftToes  -7.8664 1.28829e-006 1.15665e-007
